<svg width="29" height="21" viewBox="0 0 29 21" fill="none" xmlns="http://www.w3.org/2000/svg">
<path d="M7.31055 16.3469C8.43555 16.3469 9.52409 16.4771 10.5762 16.7375C11.6283 16.9979 12.6647 17.3885 13.6855 17.9094V4.56561C12.748 3.94061 11.7324 3.45624 10.6387 3.11249C9.54492 2.76874 8.43555 2.59686 7.31055 2.59686C6.51888 2.59686 5.74284 2.69582 4.98242 2.89374C4.22201 3.09165 3.45638 3.33645 2.68555 3.62811V17.1906C3.33138 16.8989 4.06575 16.6854 4.88867 16.55C5.71159 16.4146 6.51888 16.3469 7.31055 16.3469ZM15.5605 17.9094C16.6022 17.3885 17.623 16.9979 18.623 16.7375C19.623 16.4771 20.6855 16.3469 21.8105 16.3469C22.6022 16.3469 23.4199 16.4094 24.2637 16.5344C25.1074 16.6594 25.8314 16.826 26.4355 17.0344V3.62811C25.7272 3.27395 24.9772 3.01353 24.1855 2.84686C23.3939 2.6802 22.6022 2.59686 21.8105 2.59686C20.6855 2.59686 19.597 2.76874 18.5449 3.11249C17.4928 3.45624 16.498 3.94061 15.5605 4.56561V17.9094ZM14.623 20.7219C13.5605 19.9302 12.4043 19.3208 11.1543 18.8937C9.9043 18.4667 8.62305 18.2531 7.31055 18.2531C6.53971 18.2531 5.78971 18.3469 5.06055 18.5344C4.33138 18.7219 3.60221 18.951 2.87305 19.2219C2.39388 19.451 1.93034 19.4198 1.48242 19.1281C1.03451 18.8364 0.810547 18.4198 0.810547 17.8781V3.40936C0.810547 3.09686 0.883463 2.8104 1.0293 2.54999C1.17513 2.28957 1.39388 2.08645 1.68555 1.94061C2.56055 1.52395 3.47201 1.21665 4.41992 1.01874C5.36784 0.820821 6.33138 0.721863 7.31055 0.721863C8.62305 0.721863 9.89909 0.898946 11.1387 1.25311C12.3783 1.60728 13.5397 2.14895 14.623 2.87811C15.6855 2.14895 16.8262 1.60728 18.0449 1.25311C19.2637 0.898946 20.5189 0.721863 21.8105 0.721863C22.7897 0.721863 23.748 0.820821 24.6855 1.01874C25.623 1.21665 26.5293 1.52395 27.4043 1.94061C27.696 2.08645 27.9199 2.28957 28.0762 2.54999C28.2324 2.8104 28.3105 3.09686 28.3105 3.40936V17.8781C28.3105 18.4614 28.0762 18.9042 27.6074 19.2062C27.1387 19.5083 26.6751 19.5135 26.2168 19.2219C25.5085 18.9302 24.7897 18.6958 24.0605 18.5187C23.3314 18.3417 22.5814 18.2531 21.8105 18.2531C20.498 18.2531 19.2376 18.4719 18.0293 18.9094C16.821 19.3469 15.6855 19.951 14.623 20.7219Z"/>
</svg>
