<svg width="21" height="21" viewBox="0 0 21 21" fill="none" xmlns="http://www.w3.org/2000/svg">
<path d="M2.62305 20.6848C2.03971 20.6848 1.55013 20.4868 1.1543 20.091C0.758463 19.6952 0.560547 19.2056 0.560547 18.6223C0.560547 18.0389 0.758463 17.5493 1.1543 17.1535C1.55013 16.7577 2.03971 16.5598 2.62305 16.5598C3.20638 16.5598 3.69596 16.7577 4.0918 17.1535C4.48763 17.5493 4.68555 18.0389 4.68555 18.6223C4.68555 19.2056 4.48763 19.6952 4.0918 20.091C3.69596 20.4868 3.20638 20.6848 2.62305 20.6848V20.6848ZM2.62305 12.7473C2.03971 12.7473 1.55013 12.5493 1.1543 12.1535C0.758463 11.7577 0.560547 11.2681 0.560547 10.6848C0.560547 10.1014 0.758463 9.61184 1.1543 9.216C1.55013 8.82017 2.03971 8.62225 2.62305 8.62225C3.20638 8.62225 3.69596 8.82017 4.0918 9.216C4.48763 9.61184 4.68555 10.1014 4.68555 10.6848C4.68555 11.2681 4.48763 11.7577 4.0918 12.1535C3.69596 12.5493 3.20638 12.7473 2.62305 12.7473V12.7473ZM2.62305 4.80975C2.03971 4.80975 1.55013 4.61184 1.1543 4.216C0.758463 3.82017 0.560547 3.33059 0.560547 2.74725C0.560547 2.16392 0.758463 1.67434 1.1543 1.2785C1.55013 0.88267 2.03971 0.684753 2.62305 0.684753C3.20638 0.684753 3.69596 0.88267 4.0918 1.2785C4.48763 1.67434 4.68555 2.16392 4.68555 2.74725C4.68555 3.33059 4.48763 3.82017 4.0918 4.216C3.69596 4.61184 3.20638 4.80975 2.62305 4.80975V4.80975ZM10.5605 12.7473C9.97721 12.7473 9.48763 12.5493 9.0918 12.1535C8.69596 11.7577 8.49805 11.2681 8.49805 10.6848C8.49805 10.1014 8.69596 9.61184 9.0918 9.216C9.48763 8.82017 9.97721 8.62225 10.5605 8.62225C11.1439 8.62225 11.6335 8.82017 12.0293 9.216C12.4251 9.61184 12.623 10.1014 12.623 10.6848L10.5605 12.7473ZM10.5605 4.80975C9.97721 4.80975 9.48763 4.61184 9.0918 4.216C8.69596 3.82017 8.49805 3.33059 8.49805 2.74725C8.49805 2.16392 8.69596 1.67434 9.0918 1.2785C9.48763 0.88267 9.97721 0.684753 10.5605 0.684753C11.1439 0.684753 11.6335 0.88267 12.0293 1.2785C12.4251 1.67434 12.623 2.16392 12.623 2.74725C12.623 3.33059 12.4251 3.82017 12.0293 4.216C11.6335 4.61184 11.1439 4.80975 10.5605 4.80975V4.80975ZM9.31055 20.6848V18.6535L16.9043 11.0598L18.9355 13.091L11.3418 20.6848H9.31055ZM18.498 4.80975C17.9147 4.80975 17.4251 4.61184 17.0293 4.216C16.6335 3.82017 16.4355 3.33059 16.4355 2.74725C16.4355 2.16392 16.6335 1.67434 17.0293 1.2785C17.4251 0.88267 17.9147 0.684753 18.498 0.684753C19.0814 0.684753 19.571 0.88267 19.9668 1.2785C20.3626 1.67434 20.5605 2.16392 20.5605 2.74725C20.5605 3.33059 20.3626 3.82017 19.9668 4.216C19.571 4.61184 19.0814 4.80975 18.498 4.80975V4.80975ZM19.748 12.2785L17.7168 10.2473L18.498 9.466C18.6647 9.29934 18.873 9.2108 19.123 9.20038C19.373 9.18996 19.5814 9.26809 19.748 9.43475L20.5605 10.2473C20.7272 10.4139 20.8053 10.6223 20.7949 10.8723C20.7845 11.1223 20.696 11.3306 20.5293 11.4973L19.748 12.2785Z" fill="#CAC9F9"/>
</svg>
