<svg width="23" height="25" viewBox="0 0 23 25" fill="none" xmlns="http://www.w3.org/2000/svg">
<path d="M4.93555 20.4836C3.64388 20.4836 2.55013 20.0357 1.6543 19.1398C0.758463 18.244 0.310547 17.1502 0.310547 15.8586C0.310547 14.5669 0.758463 13.4732 1.6543 12.5773C2.55013 11.6815 3.64388 11.2336 4.93555 11.2336C6.22721 11.2336 7.32096 11.6815 8.2168 12.5773C9.11263 13.4732 9.56055 14.5669 9.56055 15.8586C9.56055 17.1502 9.11263 18.244 8.2168 19.1398C7.32096 20.0357 6.22721 20.4836 4.93555 20.4836ZM4.93555 18.6086C5.70638 18.6086 6.35742 18.343 6.88867 17.8117C7.41992 17.2805 7.68555 16.6294 7.68555 15.8586C7.68555 15.0877 7.41992 14.4367 6.88867 13.9055C6.35742 13.3742 5.70638 13.1086 4.93555 13.1086C4.16471 13.1086 3.51367 13.3742 2.98242 13.9055C2.45117 14.4367 2.18555 15.0877 2.18555 15.8586C2.18555 16.6294 2.45117 17.2805 2.98242 17.8117C3.51367 18.343 4.16471 18.6086 4.93555 18.6086ZM10.2168 8.17108C11.0085 8.17108 11.6647 7.91067 12.1855 7.38983C12.7064 6.869 12.9668 6.21275 12.9668 5.42108C12.9668 4.62941 12.7064 3.97316 12.1855 3.45233C11.6647 2.9315 11.0085 2.67108 10.2168 2.67108C9.42513 2.67108 8.76888 2.9315 8.24805 3.45233C7.72721 3.97316 7.4668 4.62941 7.4668 5.42108C7.4668 6.21275 7.72721 6.869 8.24805 7.38983C8.76888 7.91067 9.42513 8.17108 10.2168 8.17108ZM10.2168 10.0461C8.92513 10.0461 7.83138 9.59816 6.93555 8.70233C6.03971 7.8065 5.5918 6.71275 5.5918 5.42108C5.5918 4.12941 6.03971 3.03566 6.93555 2.13983C7.83138 1.244 8.92513 0.796082 10.2168 0.796082C11.5085 0.796082 12.6022 1.244 13.498 2.13983C14.3939 3.03566 14.8418 4.12941 14.8418 5.42108C14.8418 6.71275 14.3939 7.8065 13.498 8.70233C12.6022 9.59816 11.5085 10.0461 10.2168 10.0461ZM18.1855 22.6711C18.9772 22.6711 19.6335 22.4107 20.1543 21.8898C20.6751 21.369 20.9355 20.7127 20.9355 19.9211C20.9355 19.1294 20.6751 18.4732 20.1543 17.9523C19.6335 17.4315 18.9772 17.1711 18.1855 17.1711C17.3939 17.1711 16.7376 17.4315 16.2168 17.9523C15.696 18.4732 15.4355 19.1294 15.4355 19.9211C15.4355 20.7127 15.696 21.369 16.2168 21.8898C16.7376 22.4107 17.3939 22.6711 18.1855 22.6711ZM18.1855 24.5461C16.8939 24.5461 15.8001 24.0982 14.9043 23.2023C14.0085 22.3065 13.5605 21.2127 13.5605 19.9211C13.5605 18.6294 14.0085 17.5357 14.9043 16.6398C15.8001 15.744 16.8939 15.2961 18.1855 15.2961C19.4772 15.2961 20.571 15.744 21.4668 16.6398C22.3626 17.5357 22.8105 18.6294 22.8105 19.9211C22.8105 21.2127 22.3626 22.3065 21.4668 23.2023C20.571 24.0982 19.4772 24.5461 18.1855 24.5461Z" />
</svg>
