<svg width="23" height="26" viewBox="0 0 23 26" fill="none" xmlns="http://www.w3.org/2000/svg">
<path d="M3.49805 25.759C2.58138 25.759 1.80534 25.4413 1.16992 24.8058C0.534505 24.1704 0.216797 23.3944 0.216797 22.4777V18.5715H4.18555V0.758972L6.06055 2.63397L7.93555 0.758972L9.7793 2.63397L11.6543 0.758972L13.5293 2.63397L15.4043 0.758972L17.2793 2.63397L19.1543 0.758972L21.0293 2.63397L22.9043 0.758972V22.4777C22.9043 23.3944 22.5866 24.1704 21.9512 24.8058C21.3158 25.4413 20.5397 25.759 19.623 25.759H3.49805ZM19.623 23.884C20.0397 23.884 20.3783 23.7538 20.6387 23.4933C20.8991 23.2329 21.0293 22.8944 21.0293 22.4777V3.88397H6.06055V18.5715H18.2168V22.4777C18.2168 22.8944 18.347 23.2329 18.6074 23.4933C18.8678 23.7538 19.2064 23.884 19.623 23.884ZM7.7168 8.82147V6.94647H15.2168V8.82147H7.7168ZM7.7168 13.009V11.134H15.2168V13.009H7.7168ZM18.123 8.82147C17.873 8.82147 17.6543 8.72772 17.4668 8.54022C17.2793 8.35272 17.1855 8.13397 17.1855 7.88397C17.1855 7.63397 17.2793 7.41522 17.4668 7.22772C17.6543 7.04022 17.873 6.94647 18.123 6.94647C18.373 6.94647 18.5918 7.04022 18.7793 7.22772C18.9668 7.41522 19.0605 7.63397 19.0605 7.88397C19.0605 8.13397 18.9668 8.35272 18.7793 8.54022C18.5918 8.72772 18.373 8.82147 18.123 8.82147ZM18.123 12.8527C17.873 12.8527 17.6543 12.759 17.4668 12.5715C17.2793 12.384 17.1855 12.1652 17.1855 11.9152C17.1855 11.6652 17.2793 11.4465 17.4668 11.259C17.6543 11.0715 17.873 10.9777 18.123 10.9777C18.373 10.9777 18.5918 11.0715 18.7793 11.259C18.9668 11.4465 19.0605 11.6652 19.0605 11.9152C19.0605 12.1652 18.9668 12.384 18.7793 12.5715C18.5918 12.759 18.373 12.8527 18.123 12.8527ZM3.4668 23.884H16.3418V20.4465H2.0918V22.4777C2.0918 22.8944 2.22201 23.2329 2.48242 23.4933C2.74284 23.7538 3.07096 23.884 3.4668 23.884ZM2.0918 23.884V20.4465V23.884Z" fill="#CAC9F9"/>
</svg>
