<svg width="76" height="54" viewBox="0 0 76 54" fill="none" xmlns="http://www.w3.org/2000/svg">
<path d="M59.5094 32.8637V21.7596H48.4053V16.6346H59.5094V5.53039H64.6344V16.6346H75.7386V21.7596H64.6344V32.8637H59.5094ZM27.9053 25.945C24.1469 25.945 21.0719 24.7491 18.6803 22.3575C16.2886 19.9658 15.0928 16.8908 15.0928 13.1325C15.0928 9.37414 16.2886 6.29914 18.6803 3.90748C21.0719 1.51581 24.1469 0.319977 27.9053 0.319977C31.6636 0.319977 34.7386 1.51581 37.1303 3.90748C39.5219 6.29914 40.7178 9.37414 40.7178 13.1325C40.7178 16.8908 39.5219 19.9658 37.1303 22.3575C34.7386 24.7491 31.6636 25.945 27.9053 25.945ZM0.57193 53.3637V45.3346C0.57193 43.3415 1.08443 41.5335 2.10943 39.9106C3.13443 38.2877 4.55804 37.0776 6.38026 36.2804C10.6511 34.4012 14.4521 33.0773 17.7834 32.3085C21.1146 31.5398 24.4886 31.1554 27.9053 31.1554C31.3219 31.1554 34.6959 31.5398 38.0271 32.3085C41.3584 33.0773 45.131 34.4012 49.3448 36.2804C51.1671 37.1346 52.6049 38.3589 53.6584 39.9533C54.7119 41.5478 55.2386 43.3415 55.2386 45.3346V53.3637H0.57193ZM5.69693 48.2387H50.1136V45.3346C50.1136 44.4234 49.8858 43.555 49.4303 42.7294C48.9747 41.9037 48.2629 41.2915 47.2948 40.8929C43.3087 38.9568 39.9063 37.704 37.0876 37.1346C34.2688 36.5651 31.208 36.2804 27.9053 36.2804C24.6025 36.2804 21.5417 36.5794 18.723 37.1773C15.9042 37.7752 12.4733 39.0137 8.43026 40.8929C7.5761 41.2915 6.907 41.9037 6.42297 42.7294C5.93894 43.555 5.69693 44.4234 5.69693 45.3346V48.2387ZM27.9053 20.82C30.1261 20.82 31.9626 20.0939 33.4146 18.6418C34.8667 17.1898 35.5928 15.3533 35.5928 13.1325C35.5928 10.9116 34.8667 9.07519 33.4146 7.6231C31.9626 6.17102 30.1261 5.44498 27.9053 5.44498C25.6844 5.44498 23.848 6.17102 22.3959 7.6231C20.9438 9.07519 20.2178 10.9116 20.2178 13.1325C20.2178 15.3533 20.9438 17.1898 22.3959 18.6418C23.848 20.0939 25.6844 20.82 27.9053 20.82Z" fill="white"/>
</svg>
